<svg xmlns="http://www.w3.org/2000/svg"
  style="transform: matrix(1.34, 0, 0, 1.34, 0, 0); transform-origin: 50% 50%; cursor: move; max-height: none; transition: transform 200ms ease-in-out 0s;"
  viewBox="0 0 10240 10240">
  <g fill="#000" style="transform: none;">
    <g style="transform: none;">
      <path
        d="M3645 8490 c-200 -200 -306 -313 -300 -319 6 -6 93 -71 195 -145 l185 -135 88 87 87 87 473 -473 472 -472 -62 -62 -62 -61 -223 12 c-123 6 -250 13 -283 15 -33 2 -188 11 -345 20 -157 10 -310 18 -340 18 l-54 1 -937 -939 -938 -938 -71 72 -72 72 -84 -82 c-46 -46 -84 -88 -84 -93 0 -6 396 -406 880 -890 l880 -880 85 85 c47 46 85 88 85 93 0 5 -29 37 -65 72 -36 36 -65 68 -65 73 0 4 69 76 153 159 83 84 504 504 935 935 l782 784 -15 269 c-9 149 -24 425 -35 614 l-19 344 57 63 c31 35 64 64 72 64 8 0 42 -30 74 -66 l59 -66 -7 -101 c-3 -56 -15 -257 -26 -447 -11 -190 -25 -419 -30 -509 l-10 -165 782 -784 c431 -431 852 -851 936 -935 83 -83 152 -156 152 -161 0 -6 -30 -41 -67 -78 l-68 -68 88 -88 87 -87 885 885 885 885 -87 87 -88 88 -73 -73 -73 -72 -938 940 -938 940 -304 -16 c-167 -9 -445 -25 -617 -34 l-314 -18 -64 64 -64 64 467 467 c258 258 472 468 476 468 5 0 47 -39 94 -86 l85 -86 22 20 c11 11 98 76 192 145 l172 124 -313 313 -313 313 -73 -99 c-40 -55 -103 -141 -141 -191 -37 -51 -68 -95 -68 -98 0 -3 39 -44 86 -91 l87 -86 -469 -469 c-258 -258 -476 -469 -484 -469 -8 0 -225 210 -483 468 l-467 467 89 89 89 88 -57 77 c-32 42 -97 129 -144 194 -48 64 -88 117 -90 117 -1 0 -141 -139 -312 -310z m394 -1760 c206 -11 377 -23 380 -26 3 -2 -149 -159 -337 -347 l-342 -342 -220 220 -220 220 153 153 c142 143 154 153 182 147 17 -3 198 -15 404 -25z m2549 -123 l152 -152 -218 -218 -217 -217 -342 342 c-188 188 -341 343 -340 345 2 1 176 12 387 23 211 11 386 23 389 25 16 17 53 -12 189 -148z m-1984 -174 c5 -49 16 -232 25 -408 l18 -320 -149 -150 -148 -150 -217 217 -218 218 335 338 c184 187 338 340 341 340 3 1 9 -37 13 -85z m1186 -255 l335 -338 -218 -218 -217 -217 -148 150 -149 150 13 220 c7 121 17 292 23 380 6 88 11 172 11 188 0 15 3 26 8 25 4 0 158 -153 342 -340z m-2313 -426 l-47 -48 88 -87 87 -87 48 47 47 48 218 -218 217 -217 -287 -287 c-158 -158 -288 -285 -290 -282 -2 3 -237 240 -523 527 l-520 522 285 285 285 285 220 -220 220 -220 -48 -48z m3758 208 c154 -154 281 -286 283 -293 1 -6 -232 -246 -518 -532 l-521 -519 -287 287 -287 287 215 215 c118 118 218 215 222 215 4 0 26 -20 50 -45 l43 -46 90 91 90 91 -48 46 -49 46 218 218 c121 121 219 219 219 219 1 0 127 -126 280 -280z m-4410 -1040 l520 -520 -180 -180 c-99 -99 -183 -179 -187 -178 -4 2 -242 237 -528 522 l-521 520 178 178 c98 98 182 178 188 178 6 0 244 -234 530 -520z m5108 342 l178 -178 -521 -520 c-286 -285 -524 -520 -528 -522 -4 -1 -88 79 -187 178 l-180 180 520 520 c286 286 524 520 530 520 6 0 90 -80 188 -178z">
      </path>
      <path
        d="M4410 4655 c-338 -338 -616 -618 -617 -622 -2 -5 60 -141 137 -302 78 -161 140 -295 138 -296 -3 -4 -73 -18 -206 -42 l-93 -17 -217 217 -217 217 -32 -31 -31 -32 235 -235 236 -235 46 11 c25 6 84 18 131 27 97 17 124 22 162 31 24 5 29 1 48 -35 l20 -41 176 0 c102 0 173 4 170 9 -3 5 -30 105 -60 223 -30 117 -66 256 -79 308 -42 164 -43 146 9 159 26 7 48 11 49 9 1 -2 10 -34 19 -73 9 -38 34 -137 56 -220 21 -82 54 -210 72 -282 l33 -133 188 0 187 0 0 860 0 860 50 0 50 0 0 -860 0 -860 189 0 189 0 5 28 c3 15 19 79 35 142 17 63 54 207 82 320 29 113 55 208 59 212 9 11 91 -13 91 -26 0 -7 -7 -35 -14 -62 -17 -56 -156 -600 -156 -609 0 -3 76 -5 170 -5 l170 0 21 41 c22 44 15 43 104 23 11 -2 58 -11 105 -20 47 -9 90 -17 95 -19 6 -1 27 -5 49 -10 l38 -8 234 234 234 233 -32 33 -32 33 -218 -217 -217 -217 -78 13 c-43 6 -91 16 -108 21 -16 4 -47 11 -67 15 -21 3 -38 12 -38 19 0 7 34 85 76 172 42 87 103 214 135 282 33 68 59 129 59 135 0 7 -276 288 -612 624 l-613 613 -615 -615z">
      </path>
      <path
        d="M4137 3164 c-4 -4 -79 -24 -147 -39 -8 -2 -44 -11 -80 -20 -88 -23 -85 -22 -168 -41 -70 -17 -74 -19 -129 -83 -31 -36 -62 -70 -68 -76 -6 -5 -50 -54 -99 -108 -94 -105 -99 -120 -49 -152 25 -17 25 -17 80 41 31 33 97 107 149 165 l93 106 178 42 c98 24 197 50 221 57 23 8 48 14 55 14 13 0 38 -96 30 -115 -2 -5 -46 -37 -96 -71 -51 -33 -140 -93 -199 -133 l-108 -73 0 -342 0 -341 45 0 45 0 0 320 1 320 159 105 c88 58 160 108 160 113 0 4 4 7 10 7 5 0 25 -35 45 -77 58 -127 194 -245 350 -304 29 -10 29 -12 10 -23 -11 -6 -43 -34 -71 -61 -97 -97 -98 -226 -1 -325 50 -52 108 -73 194 -71 40 1 73 -1 73 -5 0 -3 -9 -19 -20 -35 -12 -15 -26 -50 -32 -77 l-12 -49 -103 -52 -103 -51 0 -161 0 -160 33 3 32 3 3 136 3 136 82 43 82 43 45 -45 c102 -103 272 -103 381 -1 l48 45 83 -44 83 -44 3 -137 3 -137 30 0 29 0 -2 161 -3 161 -102 52 c-101 51 -101 51 -108 93 -3 23 -17 58 -31 78 -13 20 -24 38 -24 41 0 3 33 4 73 3 164 -3 261 85 261 236 0 52 -5 80 -21 110 -25 47 -68 90 -100 100 -32 9 -29 31 5 40 122 30 314 207 354 327 14 41 26 56 36 43 4 -6 61 -46 127 -90 66 -44 126 -86 133 -92 7 -7 17 -13 21 -13 4 0 17 -9 29 -20 22 -21 22 -25 22 -333 l0 -312 40 0 40 0 0 341 0 342 -32 24 c-18 14 -53 37 -78 52 -25 15 -99 64 -165 110 l-120 83 2 58 c1 31 4 60 7 62 5 6 10 5 339 -78 45 -11 92 -23 104 -26 12 -3 75 -64 140 -136 183 -204 179 -200 208 -181 49 32 44 54 -30 130 -11 11 -71 77 -133 146 l-113 125 -72 17 c-82 19 -79 18 -167 41 -36 9 -72 18 -80 20 -8 2 -53 13 -99 24 -78 20 -111 21 -482 21 l-399 0 0 -355 0 -355 -50 0 -50 0 0 355 0 355 -414 0 c-227 -1 -416 -3 -419 -6z">
      </path>
    </g>
  </g>
</svg>